<?xml version="1.0" encoding="utf-8"?>
<svg viewBox="0 0 211 45" xmlns="http://www.w3.org/2000/svg">
  <defs>
    <style>
      .cls-1, .cls-2 {
        fill: #343434;
        fill-rule: evenodd;
      }

      .cls-2 {
        stroke: #343434;
        stroke-linejoin: round;
        stroke-opacity: 0.5;
        stroke-width: 1px;
      }
    </style>
  </defs>
  <g transform="matrix(1, 0, 0, 1, -6.998999, -7.333994)">
    <path d="M192.687,47.161 L192.361,47.807 C191.888,48.648 191.122,49.069 190.063,49.069 L189.326,49.026 L189.340,47.594 C189.454,47.613 189.654,47.622 189.943,47.622 C190.453,47.622 190.813,47.407 191.021,46.976 L191.389,46.112 L187.858,38.595 L189.815,38.595 L192.219,43.992 L194.290,38.595 L196.282,38.595 L192.687,47.161 ZM185.983,45.906 C185.983,46.875 185.672,47.620 185.051,48.140 C184.429,48.660 183.539,48.920 182.381,48.920 L178.616,48.920 L178.616,38.595 L182.154,38.595 C183.322,38.595 184.210,38.829 184.820,39.297 C185.430,39.765 185.735,40.463 185.735,41.389 C185.735,41.862 185.607,42.287 185.352,42.666 C185.097,43.044 184.723,43.337 184.232,43.545 C184.789,43.696 185.221,43.981 185.526,44.399 C185.831,44.818 185.983,45.320 185.983,45.906 ZM183.512,40.382 C183.221,40.155 182.768,40.042 182.154,40.042 L180.410,40.042 L180.410,42.942 L182.168,42.942 C182.726,42.942 183.162,42.816 183.476,42.563 C183.791,42.310 183.948,41.952 183.948,41.489 C183.948,40.978 183.803,40.609 183.512,40.382 ZM182.551,44.261 L180.410,44.261 L180.410,47.473 L182.402,47.473 C182.965,47.473 183.404,47.335 183.721,47.057 C184.038,46.779 184.196,46.393 184.196,45.899 C184.196,44.831 183.648,44.285 182.551,44.261 ZM173.316,48.920 L171.536,48.920 L171.536,40.042 L168.345,40.042 L168.345,38.595 L176.535,38.595 L176.535,40.042 L173.316,40.042 L173.316,48.920 ZM160.943,46.735 C161.342,47.322 161.927,47.615 162.698,47.615 C163.402,47.615 163.931,47.457 164.286,47.140 C164.640,46.823 164.865,46.296 164.960,45.559 L166.747,45.559 C166.642,46.660 166.236,47.519 165.527,48.136 C164.818,48.753 163.875,49.062 162.698,49.062 C161.875,49.062 161.150,48.867 160.524,48.477 C159.898,48.087 159.414,47.533 159.074,46.814 C158.734,46.095 158.556,45.261 158.542,44.311 L158.542,43.346 C158.542,42.373 158.715,41.515 159.060,40.772 C159.405,40.030 159.900,39.458 160.545,39.056 C161.191,38.655 161.936,38.454 162.783,38.454 C163.922,38.454 164.839,38.762 165.534,39.379 C166.229,39.996 166.633,40.869 166.747,41.999 L164.960,41.999 C164.874,41.257 164.658,40.722 164.311,40.393 C163.963,40.064 163.454,39.900 162.783,39.900 C162.003,39.900 161.403,40.185 160.985,40.755 C160.567,41.326 160.353,42.162 160.343,43.264 L160.343,44.180 C160.343,45.297 160.543,46.148 160.943,46.735 ZM155.001,51.459 L155.001,48.920 L148.201,48.920 L148.201,51.459 L146.470,51.459 L146.414,47.473 L147.243,47.473 C147.655,47.077 147.983,46.500 148.229,45.742 C148.475,44.985 148.633,44.127 148.704,43.169 L148.973,38.595 L155.483,38.595 L155.483,47.473 L156.795,47.473 L156.703,51.459 L155.001,51.459 ZM153.696,40.042 L150.682,40.042 L150.512,42.944 C150.385,44.883 149.971,46.393 149.271,47.473 L153.696,47.473 L153.696,40.042 ZM138.270,38.595 L144.971,38.595 L144.971,40.042 L140.064,40.042 L140.064,42.893 L144.305,42.893 L144.305,44.311 L140.064,44.311 L140.064,47.473 L145.021,47.473 L145.021,48.920 L138.270,48.920 L138.270,38.595 ZM130.138,46.735 C130.537,47.322 131.122,47.615 131.893,47.615 C132.597,47.615 133.126,47.457 133.481,47.140 C133.836,46.823 134.060,46.296 134.155,45.559 L135.942,45.559 C135.838,46.660 135.431,47.519 134.722,48.136 C134.013,48.753 133.070,49.062 131.893,49.062 C131.070,49.062 130.345,48.867 129.719,48.477 C129.093,48.087 128.609,47.533 128.269,46.814 C127.929,46.095 127.751,45.261 127.737,44.311 L127.737,43.346 C127.737,42.373 127.910,41.515 128.255,40.772 C128.600,40.030 129.095,39.458 129.740,39.056 C130.386,38.655 131.131,38.454 131.978,38.454 C133.117,38.454 134.034,38.762 134.729,39.379 C135.424,39.996 135.828,40.869 135.942,41.999 L134.155,41.999 C134.070,41.257 133.853,40.722 133.506,40.393 C133.158,40.064 132.649,39.900 131.978,39.900 C131.198,39.900 130.598,40.185 130.180,40.755 C129.762,41.326 129.548,42.162 129.538,43.264 L129.538,44.180 C129.538,45.297 129.738,46.148 130.138,46.735 ZM123.526,48.448 C122.876,48.857 122.128,49.062 121.281,49.062 C120.445,49.062 119.699,48.857 119.044,48.448 C118.389,48.040 117.884,47.457 117.527,46.700 C117.170,45.944 116.989,45.072 116.984,44.084 L116.984,43.502 C116.984,42.495 117.163,41.607 117.520,40.836 C117.877,40.066 118.380,39.476 119.030,39.067 C119.680,38.658 120.426,38.454 121.267,38.454 C122.109,38.454 122.854,38.656 123.505,39.060 C124.154,39.464 124.657,40.045 125.011,40.804 C125.366,41.563 125.546,42.446 125.550,43.453 L125.550,44.027 C125.550,45.039 125.375,45.926 125.026,46.690 C124.676,47.453 124.176,48.040 123.526,48.448 ZM123.756,43.488 C123.756,42.344 123.540,41.467 123.107,40.857 C122.675,40.248 122.062,39.943 121.267,39.943 C120.492,39.943 119.886,40.246 119.448,40.854 C119.011,41.461 118.788,42.321 118.778,43.431 L118.778,44.027 C118.778,45.162 118.999,46.039 119.441,46.658 C119.883,47.277 120.497,47.587 121.281,47.587 C122.076,47.587 122.687,47.284 123.115,46.679 C123.542,46.074 123.756,45.190 123.756,44.027 L123.756,43.488 ZM109.178,46.735 C109.577,47.322 110.162,47.615 110.933,47.615 C111.637,47.615 112.167,47.457 112.521,47.140 C112.876,46.823 113.100,46.296 113.195,45.559 L114.982,45.559 C114.878,46.660 114.471,47.519 113.762,48.136 C113.053,48.753 112.110,49.062 110.933,49.062 C110.110,49.062 109.386,48.867 108.759,48.477 C108.133,48.087 107.650,47.533 107.309,46.814 C106.969,46.095 106.792,45.261 106.777,44.311 L106.777,43.346 C106.777,42.373 106.950,41.515 107.295,40.772 C107.640,40.030 108.135,39.458 108.781,39.056 C109.426,38.655 110.172,38.454 111.018,38.454 C112.157,38.454 113.074,38.762 113.769,39.379 C114.464,39.996 114.868,40.869 114.982,41.999 L113.195,41.999 C113.110,41.257 112.893,40.722 112.546,40.393 C112.199,40.064 111.689,39.900 111.018,39.900 C110.238,39.900 109.639,40.185 109.220,40.755 C108.802,41.326 108.588,42.162 108.579,43.264 L108.579,44.180 C108.579,45.297 108.778,46.148 109.178,46.735 ZM98.223,48.448 C97.573,48.857 96.825,49.062 95.979,49.062 C95.142,49.062 94.397,48.857 93.742,48.448 C93.087,48.040 92.581,47.457 92.224,46.700 C91.867,45.944 91.687,45.072 91.682,44.084 L91.682,43.502 C91.682,42.495 91.860,41.607 92.217,40.836 C92.574,40.066 93.078,39.476 93.728,39.067 C94.378,38.658 95.123,38.454 95.965,38.454 C96.806,38.454 97.552,38.656 98.202,39.060 C98.852,39.464 99.355,40.045 99.709,40.804 C100.064,41.563 100.243,42.446 100.248,43.453 L100.248,44.027 C100.248,45.039 100.073,45.926 99.723,46.690 C99.373,47.453 98.873,48.040 98.223,48.448 ZM98.454,43.488 C98.454,42.344 98.238,41.467 97.805,40.857 C97.373,40.248 96.759,39.943 95.965,39.943 C95.190,39.943 94.583,40.246 94.146,40.854 C93.709,41.461 93.485,42.321 93.476,43.431 L93.476,44.027 C93.476,45.162 93.697,46.039 94.139,46.658 C94.581,47.277 95.194,47.587 95.979,47.587 C96.773,47.587 97.384,47.284 97.812,46.679 C98.240,46.074 98.454,45.190 98.454,44.027 L98.454,43.488 ZM87.332,40.042 L82.787,40.042 L82.787,48.920 L81.000,48.920 L81.000,38.595 L89.119,38.595 L89.119,48.920 L87.332,48.920 L87.332,40.042 ZM71.904,38.595 L73.691,38.595 L73.691,48.920 L71.904,48.920 L71.904,38.595 ZM67.224,48.920 L63.274,48.920 L63.274,38.595 L65.068,38.595 L65.068,42.545 L67.181,42.545 C67.937,42.545 68.597,42.675 69.159,42.935 C69.722,43.195 70.150,43.564 70.443,44.041 C70.736,44.519 70.882,45.072 70.882,45.701 C70.882,46.665 70.555,47.440 69.900,48.026 C69.246,48.613 68.353,48.911 67.224,48.920 ZM68.599,44.457 C68.268,44.156 67.810,44.001 67.224,43.992 L65.068,43.992 L65.068,47.473 L67.174,47.473 C67.779,47.473 68.250,47.310 68.589,46.984 C68.926,46.657 69.096,46.224 69.096,45.683 C69.096,45.166 68.930,44.757 68.599,44.457 ZM55.091,46.735 C55.491,47.322 56.076,47.615 56.846,47.615 C57.551,47.615 58.080,47.457 58.435,47.140 C58.789,46.823 59.014,46.296 59.108,45.559 L60.895,45.559 C60.791,46.660 60.385,47.519 59.676,48.136 C58.967,48.753 58.024,49.062 56.846,49.062 C56.024,49.062 55.299,48.867 54.673,48.477 C54.047,48.087 53.563,47.533 53.223,46.814 C52.883,46.095 52.705,45.261 52.691,44.311 L52.691,43.346 C52.691,42.373 52.864,41.515 53.209,40.772 C53.554,40.030 54.049,39.458 54.694,39.056 C55.340,38.655 56.085,38.454 56.932,38.454 C58.071,38.454 58.988,38.762 59.683,39.379 C60.378,39.996 60.782,40.869 60.895,41.999 L59.108,41.999 C59.023,41.257 58.807,40.722 58.460,40.393 C58.112,40.064 57.603,39.900 56.932,39.900 C56.152,39.900 55.552,40.185 55.134,40.755 C54.716,41.326 54.502,42.162 54.492,43.264 L54.492,44.180 C54.492,45.297 54.692,46.148 55.091,46.735 ZM49.143,48.920 L45.987,44.495 L44.768,44.495 L44.768,48.920 L42.981,48.920 L42.981,38.595 L44.768,38.595 L44.768,42.935 L45.753,42.935 L48.788,38.595 L50.986,38.595 L47.441,43.538 L51.298,48.920 L49.143,48.920 ZM33.993,38.595 L40.694,38.595 L40.694,40.042 L35.787,40.042 L35.787,42.893 L40.028,42.893 L40.028,44.311 L35.787,44.311 L35.787,47.473 L40.744,47.473 L40.744,48.920 L33.993,48.920 L33.993,38.595 ZM30.119,48.920 L26.963,44.495 L25.744,44.495 L25.744,48.920 L23.957,48.920 L23.957,38.595 L25.744,38.595 L25.744,42.935 L26.729,42.935 L29.764,38.595 L31.962,38.595 L28.417,43.538 L32.274,48.920 L30.119,48.920 Z" class="cls-1"/>
    <path d="M208.579,18.539 C207.621,18.539 206.812,17.826 206.812,16.950 C206.812,16.073 207.621,15.361 208.579,15.361 L214.689,15.361 C215.648,15.361 216.427,16.073 216.427,16.950 L216.427,22.593 C216.427,23.031 216.247,23.442 215.917,23.744 C213.881,25.606 211.185,26.538 208.519,26.538 C205.824,26.538 203.128,25.606 201.091,23.744 C199.115,21.936 198.036,19.525 198.036,16.950 C198.036,14.402 199.115,11.991 201.091,10.183 C203.068,8.348 205.704,7.361 208.519,7.361 C211.305,7.361 213.941,8.348 215.947,10.183 C216.277,10.484 216.427,10.868 216.427,11.279 C216.427,11.690 216.277,12.101 215.917,12.430 C215.558,12.758 215.139,12.895 214.689,12.895 C214.240,12.895 213.791,12.758 213.461,12.430 C212.144,11.224 210.376,10.567 208.519,10.567 C206.632,10.567 204.895,11.224 203.577,12.430 C202.260,13.635 201.511,15.251 201.511,16.950 C201.511,18.648 202.260,20.264 203.577,21.470 C204.925,22.730 206.722,23.360 208.519,23.360 C210.107,23.360 211.664,22.867 212.952,21.908 L212.952,18.539 L208.579,18.539 ZM193.899,26.538 C193.330,26.538 192.791,26.291 192.462,25.853 L183.416,14.018 L183.416,24.949 C183.416,25.826 182.608,26.538 181.649,26.538 C180.691,26.538 179.912,25.826 179.912,24.949 L179.912,8.950 C179.912,8.129 180.631,7.361 181.679,7.361 C182.218,7.361 182.757,7.608 183.087,8.046 L192.132,19.881 L192.132,8.950 C192.132,8.074 192.911,7.361 193.899,7.361 C194.858,7.361 195.637,8.074 195.637,8.950 L195.637,24.949 C195.637,25.798 194.858,26.538 193.899,26.538 ZM173.980,26.538 C173.022,26.538 172.243,25.826 172.243,24.949 L172.243,8.950 C172.243,8.074 173.022,7.361 173.980,7.361 C174.939,7.361 175.717,8.074 175.717,8.950 L175.717,24.949 C175.717,25.826 174.939,26.538 173.980,26.538 ZM169.844,24.949 C169.844,25.826 169.065,26.538 168.107,26.538 C167.627,26.538 167.178,26.374 166.819,26.017 L159.391,18.566 L159.391,24.949 C159.391,25.826 158.582,26.538 157.624,26.538 C156.665,26.538 155.886,25.826 155.886,24.949 L155.886,8.950 C155.886,8.074 156.665,7.361 157.624,7.361 C158.582,7.361 159.391,8.074 159.391,8.950 L159.391,15.333 L166.819,7.882 C167.148,7.553 167.627,7.361 168.107,7.361 C169.095,7.361 169.844,8.101 169.844,8.950 C169.844,9.361 169.694,9.745 169.394,10.046 L162.476,16.950 L169.394,23.853 C169.694,24.155 169.844,24.565 169.844,24.949 ZM143.422,26.538 C137.881,26.538 133.388,22.237 133.388,16.950 C133.388,11.662 137.881,7.361 143.422,7.361 C148.963,7.361 153.486,11.662 153.486,16.950 C153.486,22.237 148.963,26.538 143.422,26.538 ZM143.422,10.567 C139.828,10.567 136.893,13.416 136.893,16.950 C136.893,20.484 139.828,23.333 143.422,23.333 C147.046,23.333 149.981,20.484 149.981,16.950 C149.981,13.416 147.046,10.567 143.422,10.567 ZM120.924,26.538 C115.383,26.538 110.890,22.237 110.890,16.950 C110.890,11.662 115.383,7.361 120.924,7.361 C126.465,7.361 130.988,11.662 130.988,16.950 C130.988,22.237 126.465,26.538 120.924,26.538 ZM120.924,10.567 C117.330,10.567 114.395,13.416 114.395,16.950 C114.395,20.484 117.330,23.333 120.924,23.333 C124.548,23.333 127.483,20.484 127.483,16.950 C127.483,13.416 124.548,10.567 120.924,10.567 ZM102.351,26.538 L96.241,26.538 C95.282,26.538 94.504,25.826 94.504,24.949 L94.504,8.950 C94.504,8.074 95.282,7.361 96.241,7.361 L101.063,7.361 C101.213,7.361 102.501,7.416 103.789,7.992 C105.705,8.868 106.724,10.457 106.724,12.566 C106.724,13.717 106.394,14.758 105.795,15.580 C107.532,16.621 108.491,18.374 108.491,20.538 C108.491,24.237 105.166,26.538 102.351,26.538 ZM101.303,10.567 C101.153,10.567 101.063,10.567 101.063,10.567 L98.008,10.567 L98.008,14.566 L100.614,14.566 C101.063,14.566 103.249,14.484 103.249,12.566 C103.249,10.731 101.872,10.567 101.303,10.567 ZM102.141,17.744 L98.008,17.744 L98.008,23.333 L102.141,23.333 C102.171,23.333 102.980,23.305 103.699,22.949 C104.867,22.346 104.987,21.278 104.987,20.538 C104.987,19.525 104.298,17.744 102.141,17.744 ZM82.039,26.538 C76.498,26.538 72.006,22.237 72.006,16.950 C72.006,11.662 76.498,7.361 82.039,7.361 C87.580,7.361 92.103,11.662 92.103,16.950 C92.103,22.237 87.580,26.538 82.039,26.538 ZM82.039,10.567 C78.445,10.567 75.510,13.416 75.510,16.950 C75.510,20.484 78.445,23.333 82.039,23.333 C85.663,23.333 88.599,20.484 88.599,16.950 C88.599,13.416 85.663,10.567 82.039,10.567 ZM62.628,26.483 L62.388,26.483 C59.842,26.401 57.626,25.086 56.578,23.031 C56.458,22.812 56.428,22.566 56.428,22.346 C56.428,21.744 56.787,21.168 57.446,20.895 C57.686,20.785 57.925,20.758 58.165,20.758 C58.824,20.758 59.483,21.086 59.782,21.689 C60.262,22.648 61.280,23.250 62.508,23.278 L62.658,23.278 C63.706,23.278 64.575,22.977 65.204,22.401 C65.803,21.853 66.132,21.168 66.132,20.429 L66.132,20.319 C66.042,19.059 63.437,17.936 62.298,17.635 L62.179,17.580 C59.094,16.566 57.536,14.785 57.536,12.320 L57.536,12.101 C57.596,10.704 58.285,9.443 59.573,8.567 C60.651,7.800 62.119,7.334 63.676,7.334 L63.946,7.334 C65.204,7.361 66.492,7.827 67.540,8.539 C67.989,8.868 68.229,9.334 68.229,9.800 C68.229,10.128 68.109,10.484 67.869,10.758 C67.510,11.169 67.001,11.389 66.462,11.389 C66.102,11.389 65.743,11.306 65.413,11.087 C64.964,10.758 64.365,10.567 63.826,10.539 L63.646,10.539 C62.179,10.539 61.040,11.224 61.010,12.210 L61.010,12.320 C61.010,13.662 62.149,14.155 63.317,14.594 C64.215,14.840 69.427,16.374 69.607,20.155 L69.607,20.429 C69.607,22.018 68.918,23.524 67.720,24.620 C66.402,25.826 64.605,26.483 62.628,26.483 ZM54.029,24.949 C54.029,25.826 53.250,26.538 52.292,26.538 C51.812,26.538 51.363,26.374 51.004,26.017 L43.576,18.566 L43.576,24.949 C43.576,25.826 42.767,26.538 41.808,26.538 C40.850,26.538 40.071,25.826 40.071,24.949 L40.071,8.950 C40.071,8.074 40.850,7.361 41.808,7.361 C42.767,7.361 43.576,8.074 43.576,8.950 L43.576,15.333 L51.004,7.882 C51.333,7.553 51.812,7.361 52.292,7.361 C53.280,7.361 54.029,8.101 54.029,8.950 C54.029,9.361 53.879,9.745 53.579,10.046 L46.661,16.950 L53.579,23.853 C53.879,24.155 54.029,24.565 54.029,24.949 ZM35.306,23.333 C36.294,23.333 37.073,24.045 37.073,24.949 C37.073,25.826 36.294,26.538 35.306,26.538 L25.721,26.538 C24.733,26.538 23.954,25.826 23.954,24.949 L23.954,8.950 C23.954,8.074 24.733,7.361 25.721,7.361 L35.306,7.361 C36.294,7.361 37.073,8.074 37.073,8.950 C37.073,9.854 36.294,10.567 35.306,10.567 L27.459,10.567 L27.459,15.361 L33.569,15.361 C34.527,15.361 35.306,16.073 35.306,16.950 C35.306,17.826 34.527,18.539 33.569,18.539 L27.459,18.539 L27.459,23.333 L35.306,23.333 ZM20.956,24.949 C20.956,25.826 20.177,26.538 19.219,26.538 C18.740,26.538 18.290,26.374 17.931,26.017 L10.503,18.566 L10.503,24.949 C10.503,25.826 9.694,26.538 8.736,26.538 C7.777,26.538 6.999,25.826 6.999,24.949 L6.999,8.950 C6.999,8.074 7.777,7.361 8.736,7.361 C9.694,7.361 10.503,8.074 10.503,8.950 L10.503,15.333 L17.931,7.882 C18.260,7.553 18.740,7.361 19.219,7.361 C20.207,7.361 20.956,8.101 20.956,8.950 C20.956,9.361 20.806,9.745 20.507,10.046 L13.588,16.950 L20.507,23.853 C20.806,24.155 20.956,24.565 20.956,24.949 Z" class="cls-2"/>
  </g>
</svg>