<svg width="50" height="165" viewBox="0 0 50 165" xmlns="http://www.w3.org/2000/svg">
  <path d="M 30.928 57.409 L 25.204 78.278 L 19.503 57.496 C 8.62 54.988 0.5 45.282 0.5 33.667 C 0.5 20.147 11.489 9.186 25.043 9.186 C 38.598 9.186 49.587 20.147 49.587 33.667 C 49.587 45.159 41.635 54.776 30.928 57.409 Z" fill="rgb(255, 255, 255)"/>
  <path d="M 30.84 137.021 L 25.116 157.89 L 19.415 137.108 C 8.532 134.6 0.412 124.894 0.412 113.279 C 0.412 99.759 11.401 88.798 24.955 88.798 C 38.51 88.798 49.499 99.759 49.499 113.279 C 49.499 124.771 41.547 134.388 30.84 137.021 Z" fill="rgb(255, 86, 53)"/>
</svg>
