<?xml version="1.0" encoding="utf-8"?>
<svg viewBox="0 0 34 466" xmlns="http://www.w3.org/2000/svg" xmlns:bx="https://boxy-svg.com">
  <defs>
    <bx:guide x="17" y="30.385" angle="0"/>
  </defs>
  <path d="M 26.171 145.928 L 7.758 145.928 C 6.511 145.928 5.5 144.917 5.5 143.67 L 5.5 122.259 C 5.5 121.011 6.511 120 7.758 120 L 26.171 120 C 27.418 120 28.43 121.011 28.43 122.259 L 28.43 143.67 C 28.43 144.917 27.418 145.928 26.171 145.928 Z M 26.498 121.931 L 7.431 121.931 L 7.431 126.032 L 26.498 126.032 L 26.498 121.931 Z M 26.498 141.099 L 26.498 140.059 L 26.498 128.068 L 7.431 128.068 C 7.431 130.115 7.431 137.195 7.431 139.925 L 7.431 141.099 L 7.431 143.997 L 26.498 143.997 L 26.498 141.099 Z M 16.957 129.481 C 20.744 129.481 23.824 132.561 23.824 136.348 C 23.824 140.134 20.744 143.214 16.957 143.214 C 13.171 143.214 10.091 140.134 10.091 136.348 C 10.091 132.561 13.171 129.481 16.957 129.481 Z M 16.957 141.272 C 19.673 141.272 21.883 139.063 21.883 136.348 C 21.883 133.632 19.673 131.423 16.957 131.423 C 14.242 131.423 12.033 133.632 12.033 136.348 C 12.033 139.063 14.242 141.272 16.957 141.272 Z M 18.116 138.965 C 18.572 138.965 19.013 138.894 19.432 138.768 C 18.777 139.412 17.885 139.814 16.912 139.814 C 14.942 139.814 13.298 138.17 13.298 136.2 C 13.298 135.793 13.371 135.402 13.5 135.034 C 13.87 137.239 15.819 138.965 18.116 138.965 Z M 16.627 122.979 C 17.872 122.979 17.872 124.911 16.627 124.911 C 15.381 124.911 15.381 122.979 16.627 122.979 Z M 19.826 122.979 C 21.071 122.979 21.071 124.911 19.826 124.911 C 18.58 124.911 18.58 122.979 19.826 122.979 Z M 23.084 122.979 C 24.33 122.979 24.33 124.911 23.084 124.911 C 21.839 124.911 21.839 122.979 23.084 122.979 Z" class="cls-1" style="fill: rgb(52, 52, 52); fill-rule: evenodd;" bx:origin="0.48 0.5"/>
  <path d="M 27.826 178.078 L 24.538 176.18 L 26.923 175.784 C 27.393 175.706 27.71 175.262 27.632 174.792 C 27.554 174.322 27.119 174.001 26.64 174.082 L 22.186 174.822 L 19.089 173.034 L 22.186 171.246 L 26.64 171.986 C 26.688 171.994 26.735 171.997 26.782 171.997 C 27.196 171.997 27.562 171.698 27.632 171.276 C 27.71 170.806 27.393 170.362 26.923 170.284 L 24.538 169.888 L 27.826 167.99 C 28.342 167.692 28.519 167.033 28.221 166.517 C 27.923 166.002 27.265 165.825 26.748 166.122 L 23.46 168.02 L 24.31 165.758 C 24.476 165.312 24.251 164.814 23.805 164.647 C 23.359 164.48 22.862 164.705 22.694 165.151 L 21.107 169.379 L 18.011 171.166 L 18.011 167.591 L 20.879 164.104 C 21.181 163.736 21.128 163.192 20.76 162.889 C 20.392 162.586 19.848 162.641 19.546 163.008 L 18.011 164.874 L 18.011 161.078 C 18.011 160.482 17.528 160 16.933 160 C 16.337 160 15.855 160.482 15.855 161.078 L 15.855 164.874 L 14.32 163.008 C 14.018 162.641 13.474 162.586 13.106 162.889 C 12.738 163.192 12.685 163.736 12.987 164.104 L 15.855 167.591 L 15.855 171.166 L 12.759 169.379 L 11.172 165.151 C 11.003 164.705 10.507 164.48 10.061 164.647 C 9.615 164.814 9.39 165.312 9.556 165.758 L 10.405 168.02 L 7.118 166.122 C 6.601 165.825 5.943 166.002 5.644 166.517 C 5.347 167.033 5.524 167.692 6.039 167.99 L 9.328 169.888 L 6.943 170.284 C 6.473 170.362 6.156 170.806 6.234 171.276 C 6.304 171.698 6.67 171.997 7.084 171.997 C 7.13 171.997 7.178 171.994 7.226 171.986 L 11.68 171.246 L 14.776 173.034 L 11.974 174.652 L 7.262 173.87 C 6.674 173.769 6.119 174.169 6.021 174.757 C 5.923 175.344 6.321 175.899 6.908 175.997 L 9.034 176.349 L 6.039 178.078 C 5.524 178.376 5.347 179.035 5.644 179.551 C 5.845 179.897 6.207 180.09 6.579 180.09 C 6.762 180.09 6.948 180.044 7.118 179.946 L 10.405 178.047 L 9.556 180.31 C 9.39 180.756 9.615 181.253 10.061 181.421 C 10.161 181.458 10.263 181.476 10.364 181.476 C 10.713 181.476 11.041 181.263 11.172 180.916 L 12.759 176.689 L 15.855 174.901 L 15.855 178.477 L 12.987 181.964 C 12.685 182.332 12.738 182.876 13.106 183.179 C 13.266 183.31 13.461 183.375 13.653 183.375 C 13.902 183.375 14.149 183.267 14.32 183.06 L 15.855 181.194 L 15.855 184.99 C 15.855 185.586 16.337 186.068 16.933 186.068 C 17.528 186.068 18.011 185.586 18.011 184.99 L 18.011 181.194 L 19.546 183.06 C 19.717 183.267 19.964 183.375 20.213 183.375 C 20.405 183.375 20.6 183.31 20.76 183.179 C 21.128 182.876 21.181 182.332 20.879 181.964 L 18.011 178.477 L 18.011 174.901 L 21.107 176.689 L 22.694 180.916 C 22.824 181.263 23.153 181.476 23.502 181.476 C 23.603 181.476 23.705 181.458 23.805 181.421 C 24.251 181.253 24.476 180.756 24.31 180.31 L 23.46 178.047 L 26.748 179.946 C 26.918 180.044 27.104 180.09 27.287 180.09 C 27.659 180.09 28.021 179.897 28.221 179.551 C 28.519 179.035 28.342 178.376 27.826 178.078 Z" class="cls-1" style="fill: rgb(51, 51, 51); fill-rule: evenodd;"/>
  <g transform="matrix(1, 0, 0, 1, 3.000229, 79)">
    <rect x="1" y="1" width="26" height="26" rx="4" ry="4" class="cls-1" style="fill: none; stroke: rgb(51, 51, 51); stroke-width: 2px;"/>
    <path d="M13.067,15.317 C14.730,15.317 16.039,14.919 16.992,14.122 C17.945,13.324 18.422,12.260 18.422,10.928 C18.422,10.028 18.202,9.223 17.761,8.514 C17.320,7.804 16.698,7.257 15.895,6.873 C15.091,6.488 14.168,6.296 13.124,6.296 L7.675,6.296 L7.675,19.950 L10.967,19.950 L10.967,15.317 L13.067,15.317 ZM10.967,8.837 L13.161,8.837 C13.755,8.844 14.224,9.037 14.568,9.419 C14.912,9.800 15.084,10.310 15.084,10.947 C15.084,11.529 14.916,11.979 14.582,12.298 C14.247,12.616 13.761,12.776 13.124,12.776 L10.967,12.776 L10.967,8.837 Z" class="cls-2" style="fill: rgb(50, 50, 50); fill-rule: evenodd;"/>
  </g>
  <path d="M 32.266 51.282 C 32.266 54.103 32.266 60.94 32.266 60.94 C 32.266 61.57 31.824 62.08 31.195 62.08 C 30.566 62.08 30.056 61.57 30.056 60.94 C 30.056 60.94 30.056 41.95 30.056 40.033 C 32.626 39.888 35.594 49.329 32.266 51.282 Z M 16.962 62.717 C 10.689 62.717 5.605 57.633 5.605 51.359 C 5.605 45.086 10.689 40 16.962 40 C 23.234 40 28.321 45.086 28.321 51.359 C 28.321 57.633 23.234 62.717 16.962 62.717 Z M 16.962 42.531 C 12.088 42.531 8.136 46.483 8.136 51.359 C 8.136 56.233 12.088 60.185 16.962 60.185 C 21.838 60.185 25.788 56.233 25.788 51.359 C 25.788 46.483 21.838 42.531 16.962 42.531 Z M 16.961 57.142 C 13.767 57.142 11.179 54.552 11.179 51.361 C 11.179 48.166 13.768 45.579 16.961 45.579 C 20.155 45.579 22.743 48.166 22.743 51.361 C 22.743 54.552 20.155 57.142 16.961 57.142 Z M 3.702 60.939 C 3.702 61.569 3.26 62.078 2.631 62.078 C 2.002 62.078 1.491 61.569 1.491 60.939 L 1.491 48.114 C 0.608 47.571 0 46.437 0 45.119 L 0 40.051 L 1.33 45.119 L 1.806 40.051 L 2.658 45.119 L 3.496 40.01 L 3.918 45.119 L 5.246 40.051 L 5.246 45.119 C 5.246 46.462 4.612 47.617 3.702 48.146 L 3.702 60.939 Z" class="cls-1" style="fill: rgb(52, 52, 52); fill-rule: evenodd;"/>
  <path d="M 31.19 5.95 C 27.492 2.114 22.532 0 17.221 0 C 11.944 0 7.006 2.088 3.315 5.879 C 2.887 6.32 2.895 7.024 3.338 7.454 C 3.778 7.883 4.484 7.874 4.914 7.433 C 8.181 4.076 12.552 2.228 17.222 2.228 C 21.921 2.228 26.312 4.1 29.587 7.495 C 29.807 7.722 30.097 7.838 30.389 7.838 C 30.667 7.838 30.946 7.733 31.163 7.526 C 31.605 7.099 31.616 6.393 31.19 5.95 Z M 17.221 5.688 C 13.461 5.688 9.949 7.186 7.334 9.904 C 6.907 10.348 6.922 11.053 7.364 11.48 C 7.809 11.907 8.513 11.894 8.94 11.45 C 11.131 9.172 14.072 7.915 17.221 7.915 C 20.4 7.915 23.361 9.193 25.557 11.511 C 25.775 11.742 26.07 11.86 26.367 11.86 C 26.642 11.86 26.917 11.758 27.133 11.555 C 27.579 11.131 27.598 10.426 27.175 9.98 C 24.552 7.212 21.017 5.688 17.221 5.688 Z M 17.221 11.351 C 14.997 11.351 12.848 12.288 11.327 13.923 C 10.908 14.372 10.932 15.078 11.382 15.497 C 11.831 15.918 12.538 15.893 12.957 15.442 C 14.075 14.241 15.59 13.578 17.221 13.578 C 18.857 13.578 20.428 14.278 21.535 15.499 C 21.753 15.742 22.058 15.863 22.36 15.863 C 22.626 15.863 22.895 15.769 23.109 15.575 C 23.565 15.16 23.598 14.457 23.185 14.001 C 21.655 12.317 19.482 11.351 17.221 11.351 Z M 17.221 17.341 C 16.077 17.341 15.149 18.268 15.149 19.412 C 15.149 20.555 16.077 21.483 17.221 21.483 C 18.366 21.483 19.292 20.557 19.292 19.412 C 19.292 18.266 18.366 17.341 17.221 17.341 Z" class="cls-1" style="fill: rgb(52, 52, 52); fill-rule: evenodd;"/>
  <path d="M 28.03 225.987 L 5.912 225.987 C 4.856 225.987 4 225.131 4 224.074 L 4 201.913 C 4 200.856 4.856 200 5.912 200 L 28.03 200 C 29.086 200 29.942 200.856 29.942 201.913 L 29.942 224.074 C 29.942 225.131 29.086 225.987 28.03 225.987 Z M 28.03 202.192 C 28.03 202.038 27.905 201.913 27.751 201.913 L 6.191 201.913 C 6.037 201.913 5.912 202.038 5.912 202.192 L 5.912 223.795 C 5.912 223.949 6.037 224.074 6.191 224.074 L 27.751 224.074 C 27.905 224.074 28.03 223.949 28.03 223.795 L 28.03 202.192 Z M 22.293 220.706 C 22.188 220.706 22.09 220.65 22.037 220.559 L 18.507 214.457 C 18.455 214.367 18.455 214.257 18.507 214.167 C 18.559 214.078 18.657 214.022 18.763 214.022 L 25.823 214.022 C 25.927 214.022 26.025 214.078 26.078 214.167 C 26.131 214.257 26.131 214.367 26.078 214.457 L 22.549 220.559 C 22.495 220.65 22.397 220.706 22.293 220.706 Z M 18.763 212.09 C 18.658 212.09 18.56 212.034 18.507 211.946 C 18.455 211.856 18.455 211.745 18.507 211.655 L 22.037 205.554 C 22.09 205.462 22.188 205.406 22.293 205.406 C 22.397 205.406 22.495 205.462 22.549 205.554 L 26.078 211.655 C 26.131 211.745 26.131 211.856 26.078 211.946 C 26.026 212.034 25.928 212.09 25.823 212.09 L 18.763 212.09 Z M 14.643 216.403 L 14.248 221.311 C 14.188 222.049 13.572 222.618 12.831 222.618 L 11.687 222.618 C 10.948 222.618 10.332 222.052 10.271 221.315 L 9.862 216.403 C 8.806 216.403 7.95 215.545 7.95 214.49 L 7.95 211.144 C 7.95 210.087 8.806 209.231 9.862 209.231 L 10.579 209.231 L 12.252 212.291 L 13.926 209.231 L 14.643 209.231 C 15.699 209.231 16.555 210.087 16.555 211.144 L 16.555 214.49 C 16.555 215.545 15.699 216.403 14.643 216.403 Z M 12.252 208.275 C 10.932 208.275 9.862 207.205 9.862 205.884 C 9.862 204.564 10.932 203.494 12.252 203.494 C 13.573 203.494 14.643 204.564 14.643 205.884 C 14.643 207.205 13.573 208.275 12.252 208.275 Z" class="cls-1" style="fill: rgb(52, 52, 52); fill-rule: evenodd;"/>
  <path d="M 26.171 385.928 L 7.758 385.928 C 6.511 385.928 5.5 384.917 5.5 383.67 L 5.5 362.259 C 5.5 361.011 6.511 360 7.758 360 L 26.171 360 C 27.418 360 28.43 361.011 28.43 362.259 L 28.43 383.67 C 28.43 384.917 27.418 385.928 26.171 385.928 Z M 26.498 361.931 L 7.431 361.931 L 7.431 366.032 L 26.498 366.032 L 26.498 361.931 Z M 26.498 381.099 L 26.498 380.059 L 26.498 368.068 L 7.431 368.068 C 7.431 370.115 7.431 377.195 7.431 379.925 L 7.431 381.099 L 7.431 383.997 L 26.498 383.997 L 26.498 381.099 Z M 16.957 369.481 C 20.744 369.481 23.824 372.561 23.824 376.348 C 23.824 380.134 20.744 383.214 16.957 383.214 C 13.171 383.214 10.091 380.134 10.091 376.348 C 10.091 372.561 13.171 369.481 16.957 369.481 Z M 16.957 381.272 C 19.673 381.272 21.883 379.063 21.883 376.348 C 21.883 373.632 19.673 371.423 16.957 371.423 C 14.242 371.423 12.033 373.632 12.033 376.348 C 12.033 379.063 14.242 381.272 16.957 381.272 Z M 18.116 378.965 C 18.572 378.965 19.013 378.894 19.432 378.768 C 18.777 379.412 17.885 379.814 16.912 379.814 C 14.942 379.814 13.298 378.17 13.298 376.2 C 13.298 375.793 13.371 375.402 13.5 375.034 C 13.87 377.239 15.819 378.965 18.116 378.965 Z M 16.627 362.979 C 17.872 362.979 17.872 364.911 16.627 364.911 C 15.381 364.911 15.381 362.979 16.627 362.979 Z M 19.826 362.979 C 21.071 362.979 21.071 364.911 19.826 364.911 C 18.58 364.911 18.58 362.979 19.826 362.979 Z M 23.084 362.979 C 24.33 362.979 24.33 364.911 23.084 364.911 C 21.839 364.911 21.839 362.979 23.084 362.979 Z" class="cls-1" style="fill-rule: evenodd; fill: rgb(255, 255, 255);"/>
  <path d="M 27.826 418.078 L 24.538 416.18 L 26.923 415.784 C 27.393 415.706 27.71 415.262 27.632 414.792 C 27.554 414.322 27.119 414.001 26.64 414.082 L 22.186 414.822 L 19.089 413.034 L 22.186 411.246 L 26.64 411.986 C 26.688 411.994 26.735 411.997 26.782 411.997 C 27.196 411.997 27.562 411.698 27.632 411.276 C 27.71 410.806 27.393 410.362 26.923 410.284 L 24.538 409.888 L 27.826 407.99 C 28.342 407.692 28.519 407.033 28.221 406.517 C 27.923 406.002 27.265 405.825 26.748 406.122 L 23.46 408.02 L 24.31 405.758 C 24.476 405.312 24.251 404.814 23.805 404.647 C 23.359 404.48 22.862 404.705 22.694 405.151 L 21.107 409.379 L 18.011 411.166 L 18.011 407.591 L 20.879 404.104 C 21.181 403.736 21.128 403.192 20.76 402.889 C 20.392 402.586 19.848 402.641 19.546 403.008 L 18.011 404.874 L 18.011 401.078 C 18.011 400.482 17.528 400 16.933 400 C 16.337 400 15.855 400.482 15.855 401.078 L 15.855 404.874 L 14.32 403.008 C 14.018 402.641 13.474 402.586 13.106 402.889 C 12.738 403.192 12.685 403.736 12.987 404.104 L 15.855 407.591 L 15.855 411.166 L 12.759 409.379 L 11.172 405.151 C 11.003 404.705 10.507 404.48 10.061 404.647 C 9.615 404.814 9.39 405.312 9.556 405.758 L 10.405 408.02 L 7.118 406.122 C 6.601 405.825 5.943 406.002 5.644 406.517 C 5.347 407.033 5.524 407.692 6.039 407.99 L 9.328 409.888 L 6.943 410.284 C 6.473 410.362 6.156 410.806 6.234 411.276 C 6.304 411.698 6.67 411.997 7.084 411.997 C 7.13 411.997 7.178 411.994 7.226 411.986 L 11.68 411.246 L 14.776 413.034 L 11.974 414.652 L 7.262 413.87 C 6.674 413.769 6.119 414.169 6.021 414.757 C 5.923 415.344 6.321 415.899 6.908 415.997 L 9.034 416.349 L 6.039 418.078 C 5.524 418.376 5.347 419.035 5.644 419.551 C 5.845 419.897 6.207 420.09 6.579 420.09 C 6.762 420.09 6.948 420.044 7.118 419.946 L 10.405 418.047 L 9.556 420.31 C 9.39 420.756 9.615 421.253 10.061 421.421 C 10.161 421.458 10.263 421.476 10.364 421.476 C 10.713 421.476 11.041 421.263 11.172 420.916 L 12.759 416.689 L 15.855 414.901 L 15.855 418.477 L 12.987 421.964 C 12.685 422.332 12.738 422.876 13.106 423.179 C 13.266 423.31 13.461 423.375 13.653 423.375 C 13.902 423.375 14.149 423.267 14.32 423.06 L 15.855 421.194 L 15.855 424.99 C 15.855 425.586 16.337 426.068 16.933 426.068 C 17.528 426.068 18.011 425.586 18.011 424.99 L 18.011 421.194 L 19.546 423.06 C 19.717 423.267 19.964 423.375 20.213 423.375 C 20.405 423.375 20.6 423.31 20.76 423.179 C 21.128 422.876 21.181 422.332 20.879 421.964 L 18.011 418.477 L 18.011 414.901 L 21.107 416.689 L 22.694 420.916 C 22.824 421.263 23.153 421.476 23.502 421.476 C 23.603 421.476 23.705 421.458 23.805 421.421 C 24.251 421.253 24.476 420.756 24.31 420.31 L 23.46 418.047 L 26.748 419.946 C 26.918 420.044 27.104 420.09 27.287 420.09 C 27.659 420.09 28.021 419.897 28.221 419.551 C 28.519 419.035 28.342 418.376 27.826 418.078 Z" class="cls-1" style="fill-rule: evenodd; fill: rgb(255, 255, 255);"/>
  <path d="M 32.266 291.282 C 32.266 294.103 32.266 300.94 32.266 300.94 C 32.266 301.57 31.824 302.08 31.195 302.08 C 30.566 302.08 30.056 301.57 30.056 300.94 C 30.056 300.94 30.056 281.95 30.056 280.033 C 32.626 279.888 35.594 289.329 32.266 291.282 Z M 16.962 302.717 C 10.689 302.717 5.605 297.633 5.605 291.359 C 5.605 285.086 10.689 280 16.962 280 C 23.234 280 28.321 285.086 28.321 291.359 C 28.321 297.633 23.234 302.717 16.962 302.717 Z M 16.962 282.531 C 12.088 282.531 8.136 286.483 8.136 291.359 C 8.136 296.233 12.088 300.185 16.962 300.185 C 21.838 300.185 25.788 296.233 25.788 291.359 C 25.788 286.483 21.838 282.531 16.962 282.531 Z M 16.961 297.142 C 13.767 297.142 11.179 294.552 11.179 291.361 C 11.179 288.166 13.768 285.579 16.961 285.579 C 20.155 285.579 22.743 288.166 22.743 291.361 C 22.743 294.552 20.155 297.142 16.961 297.142 Z M 3.702 300.939 C 3.702 301.569 3.26 302.078 2.631 302.078 C 2.002 302.078 1.491 301.569 1.491 300.939 L 1.491 288.114 C 0.608 287.571 0 286.437 0 285.119 L 0 280.051 L 1.33 285.119 L 1.806 280.051 L 2.658 285.119 L 3.496 280.01 L 3.918 285.119 L 5.246 280.051 L 5.246 285.119 C 5.246 286.462 4.612 287.617 3.702 288.146 L 3.702 300.939 Z" class="cls-1" style="fill-rule: evenodd; fill: rgb(255, 255, 255);"/>
  <path d="M 31.19 245.95 C 27.492 242.114 22.532 240 17.221 240 C 11.944 240 7.006 242.088 3.315 245.879 C 2.887 246.32 2.895 247.024 3.338 247.454 C 3.778 247.883 4.484 247.874 4.914 247.433 C 8.181 244.076 12.552 242.228 17.222 242.228 C 21.921 242.228 26.312 244.1 29.587 247.495 C 29.807 247.722 30.097 247.838 30.389 247.838 C 30.667 247.838 30.946 247.733 31.163 247.526 C 31.605 247.099 31.616 246.393 31.19 245.95 Z M 17.221 245.688 C 13.461 245.688 9.949 247.186 7.334 249.904 C 6.907 250.348 6.922 251.053 7.364 251.48 C 7.809 251.907 8.513 251.894 8.94 251.45 C 11.131 249.172 14.072 247.915 17.221 247.915 C 20.4 247.915 23.361 249.193 25.557 251.511 C 25.775 251.742 26.07 251.86 26.367 251.86 C 26.642 251.86 26.917 251.758 27.133 251.555 C 27.579 251.131 27.598 250.426 27.175 249.98 C 24.552 247.212 21.017 245.688 17.221 245.688 Z M 17.221 251.351 C 14.997 251.351 12.848 252.288 11.327 253.923 C 10.908 254.372 10.932 255.078 11.382 255.497 C 11.831 255.918 12.538 255.893 12.957 255.442 C 14.075 254.241 15.59 253.578 17.221 253.578 C 18.857 253.578 20.428 254.278 21.535 255.499 C 21.753 255.742 22.058 255.863 22.36 255.863 C 22.626 255.863 22.895 255.769 23.109 255.575 C 23.565 255.16 23.598 254.457 23.185 254.001 C 21.655 252.317 19.482 251.351 17.221 251.351 Z M 17.221 257.341 C 16.077 257.341 15.149 258.268 15.149 259.412 C 15.149 260.555 16.077 261.483 17.221 261.483 C 18.366 261.483 19.292 260.557 19.292 259.412 C 19.292 258.266 18.366 257.341 17.221 257.341 Z" class="cls-1" style="fill-rule: evenodd; fill: rgb(255, 255, 255);"/>
  <path d="M 28.03 465.987 L 5.912 465.987 C 4.856 465.987 4 465.131 4 464.074 L 4 441.913 C 4 440.856 4.856 440 5.912 440 L 28.03 440 C 29.086 440 29.942 440.856 29.942 441.913 L 29.942 464.074 C 29.942 465.131 29.086 465.987 28.03 465.987 Z M 28.03 442.192 C 28.03 442.038 27.905 441.913 27.751 441.913 L 6.191 441.913 C 6.037 441.913 5.912 442.038 5.912 442.192 L 5.912 463.795 C 5.912 463.949 6.037 464.074 6.191 464.074 L 27.751 464.074 C 27.905 464.074 28.03 463.949 28.03 463.795 L 28.03 442.192 Z M 22.293 460.706 C 22.188 460.706 22.09 460.65 22.037 460.559 L 18.507 454.457 C 18.455 454.367 18.455 454.257 18.507 454.167 C 18.559 454.078 18.657 454.022 18.763 454.022 L 25.823 454.022 C 25.927 454.022 26.025 454.078 26.078 454.167 C 26.131 454.257 26.131 454.367 26.078 454.457 L 22.549 460.559 C 22.495 460.65 22.397 460.706 22.293 460.706 Z M 18.763 452.09 C 18.658 452.09 18.56 452.034 18.507 451.946 C 18.455 451.856 18.455 451.745 18.507 451.655 L 22.037 445.554 C 22.09 445.462 22.188 445.406 22.293 445.406 C 22.397 445.406 22.495 445.462 22.549 445.554 L 26.078 451.655 C 26.131 451.745 26.131 451.856 26.078 451.946 C 26.026 452.034 25.928 452.09 25.823 452.09 L 18.763 452.09 Z M 14.643 456.403 L 14.248 461.311 C 14.188 462.049 13.572 462.618 12.831 462.618 L 11.687 462.618 C 10.948 462.618 10.332 462.052 10.271 461.315 L 9.862 456.403 C 8.806 456.403 7.95 455.545 7.95 454.49 L 7.95 451.144 C 7.95 450.087 8.806 449.231 9.862 449.231 L 10.579 449.231 L 12.252 452.291 L 13.926 449.231 L 14.643 449.231 C 15.699 449.231 16.555 450.087 16.555 451.144 L 16.555 454.49 C 16.555 455.545 15.699 456.403 14.643 456.403 Z M 12.252 448.275 C 10.932 448.275 9.862 447.205 9.862 445.884 C 9.862 444.564 10.932 443.494 12.252 443.494 C 13.573 443.494 14.643 444.564 14.643 445.884 C 14.643 447.205 13.573 448.275 12.252 448.275 Z" class="cls-1" style="fill-rule: evenodd; fill: rgb(255, 255, 255);"/>
  <g transform="matrix(1, 0, 0, 1, 3.000228, 319)">
    <rect x="1" y="1" width="26" height="26" rx="4" ry="4" class="cls-1" style="fill: none; stroke-width: 2px; stroke: rgb(255, 255, 255);"/>
    <path d="M13.067,15.317 C14.730,15.317 16.039,14.919 16.992,14.122 C17.945,13.324 18.422,12.260 18.422,10.928 C18.422,10.028 18.202,9.223 17.761,8.514 C17.320,7.804 16.698,7.257 15.895,6.873 C15.091,6.488 14.168,6.296 13.124,6.296 L7.675,6.296 L7.675,19.950 L10.967,19.950 L10.967,15.317 L13.067,15.317 ZM10.967,8.837 L13.161,8.837 C13.755,8.844 14.224,9.037 14.568,9.419 C14.912,9.800 15.084,10.310 15.084,10.947 C15.084,11.529 14.916,11.979 14.582,12.298 C14.247,12.616 13.761,12.776 13.124,12.776 L10.967,12.776 L10.967,8.837 Z" class="cls-2" style="fill-rule: evenodd; stroke: rgb(255, 255, 255); fill: rgb(255, 255, 255);"/>
  </g>
</svg>